{
    "asset" : {
        "generator" : "Khronos glTF Blender I/O v1.3.48",
        "version" : "2.0"
    },
    "scene" : 0,
    "scenes" : [
        {
            "name" : "Scene",
            "nodes" : [
                1,
                2
            ]
        }
    ],
    "nodes" : [
        {
            "mesh" : 0,
            "name" : "out",
            "translation" : [
                0.0026626065373420715,
                -4.087588310241699,
                -0.1697496622800827
            ]
        },
        {
            "children" : [
                0
            ],
            "mesh" : 1,
            "name" : "hall",
            "scale" : [
                1.25,
                1,
                1.25
            ],
            "translation" : [
                -0.0033282586373388767,
                4.087588310241699,
                0.21218708157539368
            ]
        },
        {
            "mesh" : 2,
            "name" : "columna",
            "rotation" : [
                0.10476185381412506,
                0,
                0.9944973587989807,
                5.8014588688592994e-08
            ],
            "translation" : [
                0.01164543628692627,
                2.8726186752319336,
                0.028107643127441406
            ]
        }
    ],
    "materials" : [
        {
            "doubleSided" : true,
            "emissiveFactor" : [
                0,
                0,
                0
            ],
            "name" : "out",
            "pbrMetallicRoughness" : {
                "baseColorFactor" : [
                    0,
                    0,
                    0,
                    1
                ],
                "metallicFactor" : 0,
                "roughnessFactor" : 1
            }
        },
        {
            "doubleSided" : true,
            "emissiveFactor" : [
                0,
                0,
                0
            ],
            "name" : "hall",
            "pbrMetallicRoughness" : {
                "baseColorFactor" : [
                    0.3185468018054962,
                    0.3185468018054962,
                    0.3185468018054962,
                    1
                ],
                "metallicFactor" : 0,
                "roughnessFactor" : 1
            }
        },
        {
            "doubleSided" : true,
            "emissiveFactor" : [
                0,
                0,
                0
            ],
            "name" : "floor",
            "normalTexture" : {
                "index" : 0,
                "scale" : 3,
                "texCoord" : 0
            },
            "pbrMetallicRoughness" : {
                "baseColorTexture" : {
                    "index" : 1,
                    "texCoord" : 0
                },
                "metallicFactor" : 0,
                "metallicRoughnessTexture" : {
                    "index" : 2,
                    "texCoord" : 0
                }
            }
        },
        {
            "doubleSided" : true,
            "emissiveFactor" : [
                0,
                0,
                0
            ],
            "name" : "columna",
            "pbrMetallicRoughness" : {
                "baseColorTexture" : {
                    "index" : 3,
                    "texCoord" : 0
                },
                "metallicFactor" : 0,
                "roughnessFactor" : 0.10000000149011612
            }
        }
    ],
    "meshes" : [
        {
            "name" : "out",
            "primitives" : [
                {
                    "attributes" : {
                        "POSITION" : 0,
                        "NORMAL" : 1,
                        "TEXCOORD_0" : 2
                    },
                    "indices" : 3,
                    "material" : 0
                }
            ]
        },
        {
            "name" : "hall",
            "primitives" : [
                {
                    "attributes" : {
                        "POSITION" : 4,
                        "NORMAL" : 5,
                        "TEXCOORD_0" : 6
                    },
                    "indices" : 7,
                    "material" : 1
                },
                {
                    "attributes" : {
                        "POSITION" : 8,
                        "NORMAL" : 9,
                        "TEXCOORD_0" : 10
                    },
                    "indices" : 11,
                    "material" : 2
                }
            ]
        },
        {
            "name" : "Cylinder.004",
            "primitives" : [
                {
                    "attributes" : {
                        "POSITION" : 12,
                        "NORMAL" : 13,
                        "TEXCOORD_0" : 14
                    },
                    "indices" : 15,
                    "material" : 3
                }
            ]
        }
    ],
    "textures" : [
        {
            "source" : 0
        },
        {
            "source" : 1
        },
        {
            "source" : 2
        },
        {
            "source" : 3
        }
    ],
    "images" : [
        {
            "bufferView" : 12,
            "mimeType" : "image/png",
            "name" : "TilesMarbleChevronCreamGrey001_NRM_1K"
        },
        {
            "bufferView" : 13,
            "mimeType" : "image/jpeg",
            "name" : "TilesMarbleChevronCreamGrey001_COL_1K"
        },
        {
            "bufferView" : 14,
            "mimeType" : "image/png",
            "name" : "TilesMarbleChevronCreamGrey001_REFL_1K"
        },
        {
            "bufferView" : 19,
            "mimeType" : "image/jpeg",
            "name" : "marble"
        }
    ],
    "accessors" : [
        {
            "bufferView" : 0,
            "componentType" : 5126,
            "count" : 608,
            "max" : [
                8.18322467803955,
                11.490621566772461,
                16.16436195373535
            ],
            "min" : [
                -8.17476749420166,
                -0.09999990463256836,
                -8.18160343170166
            ],
            "type" : "VEC3"
        },
        {
            "bufferView" : 1,
            "componentType" : 5126,
            "count" : 608,
            "type" : "VEC3"
        },
        {
            "bufferView" : 2,
            "componentType" : 5126,
            "count" : 608,
            "type" : "VEC2"
        },
        {
            "bufferView" : 3,
            "componentType" : 5123,
            "count" : 978,
            "type" : "SCALAR"
        },
        {
            "bufferView" : 4,
            "componentType" : 5126,
            "count" : 1204,
            "max" : [
                7.760798454284668,
                7.289263725280762,
                15.83056926727295
            ],
            "min" : [
                -7.760693550109863,
                -4.087588310241699,
                -7.938814163208008
            ],
            "type" : "VEC3"
        },
        {
            "bufferView" : 5,
            "componentType" : 5126,
            "count" : 1204,
            "type" : "VEC3"
        },
        {
            "bufferView" : 6,
            "componentType" : 5126,
            "count" : 1204,
            "type" : "VEC2"
        },
        {
            "bufferView" : 7,
            "componentType" : 5123,
            "count" : 1884,
            "type" : "SCALAR"
        },
        {
            "bufferView" : 8,
            "componentType" : 5126,
            "count" : 70,
            "max" : [
                7.760798454284668,
                -4.087588310241699,
                15.83056926727295
            ],
            "min" : [
                -7.760693550109863,
                -4.087588310241699,
                -7.938814163208008
            ],
            "type" : "VEC3"
        },
        {
            "bufferView" : 9,
            "componentType" : 5126,
            "count" : 70,
            "type" : "VEC3"
        },
        {
            "bufferView" : 10,
            "componentType" : 5126,
            "count" : 70,
            "type" : "VEC2"
        },
        {
            "bufferView" : 11,
            "componentType" : 5123,
            "count" : 150,
            "type" : "SCALAR"
        },
        {
            "bufferView" : 15,
            "componentType" : 5126,
            "count" : 832,
            "max" : [
                7.711661338806152,
                2.87262225151062,
                7.664560794830322
            ],
            "min" : [
                -7.698766231536865,
                -3.127382516860962,
                -7.7460808753967285
            ],
            "type" : "VEC3"
        },
        {
            "bufferView" : 16,
            "componentType" : 5126,
            "count" : 832,
            "type" : "VEC3"
        },
        {
            "bufferView" : 17,
            "componentType" : 5126,
            "count" : 832,
            "type" : "VEC2"
        },
        {
            "bufferView" : 18,
            "componentType" : 5123,
            "count" : 2880,
            "type" : "SCALAR"
        }
    ],
    "bufferViews" : [
        {
            "buffer" : 0,
            "byteLength" : 7296,
            "byteOffset" : 0
        },
        {
            "buffer" : 0,
            "byteLength" : 7296,
            "byteOffset" : 7296
        },
        {
            "buffer" : 0,
            "byteLength" : 4864,
            "byteOffset" : 14592
        },
        {
            "buffer" : 0,
            "byteLength" : 1956,
            "byteOffset" : 19456
        },
        {
            "buffer" : 0,
            "byteLength" : 14448,
            "byteOffset" : 21412
        },
        {
            "buffer" : 0,
            "byteLength" : 14448,
            "byteOffset" : 35860
        },
        {
            "buffer" : 0,
            "byteLength" : 9632,
            "byteOffset" : 50308
        },
        {
            "buffer" : 0,
            "byteLength" : 3768,
            "byteOffset" : 59940
        },
        {
            "buffer" : 0,
            "byteLength" : 840,
            "byteOffset" : 63708
        },
        {
            "buffer" : 0,
            "byteLength" : 840,
            "byteOffset" : 64548
        },
        {
            "buffer" : 0,
            "byteLength" : 560,
            "byteOffset" : 65388
        },
        {
            "buffer" : 0,
            "byteLength" : 300,
            "byteOffset" : 65948
        },
        {
            "buffer" : 0,
            "byteLength" : 272312,
            "byteOffset" : 66248
        },
        {
            "buffer" : 0,
            "byteLength" : 1259953,
            "byteOffset" : 338560
        },
        {
            "buffer" : 0,
            "byteLength" : 276009,
            "byteOffset" : 1598516
        },
        {
            "buffer" : 0,
            "byteLength" : 9984,
            "byteOffset" : 1874528
        },
        {
            "buffer" : 0,
            "byteLength" : 9984,
            "byteOffset" : 1884512
        },
        {
            "buffer" : 0,
            "byteLength" : 6656,
            "byteOffset" : 1894496
        },
        {
            "buffer" : 0,
            "byteLength" : 5760,
            "byteOffset" : 1901152
        },
        {
            "buffer" : 0,
            "byteLength" : 524408,
            "byteOffset" : 1906912
        }
    ],
    "buffers" : [
        {
            "byteLength" : 2431320,
            "uri" : "data:application/octet-stream;base64,"
        }
    ]
}
