{
    "asset" : {
        "generator" : "Khronos glTF Blender I/O v1.3.48",
        "version" : "2.0"
    },
    "scene" : 0,
    "scenes" : [
        {
            "name" : "Scene",
            "nodes" : [
                5,
                6
            ]
        }
    ],
    "nodes" : [
        {
            "name" : "up",
            "rotation" : [
                0.7071068286895752,
                -3.062662017327966e-07,
                -3.062662017327966e-07,
                0.7071068286895752
            ],
            "translation" : [
                0,
                0.38286298513412476,
                0.17993301153182983
            ]
        },
        {
            "name" : "down",
            "rotation" : [
                0.7071068286895752,
                -3.9055990441738686e-07,
                -3.9055990441738686e-07,
                0.7071068286895752
            ],
            "translation" : [
                5.684341886080802e-14,
                -1.2684895992279053,
                0.15533936023712158
            ]
        },
        {
            "name" : "right",
            "rotation" : [
                0.7071068286895752,
                -7.277348004208761e-07,
                -7.277348004208761e-07,
                0.7071068286895752
            ],
            "translation" : [
                -3.3336498737335205,
                -0.1226271390914917,
                -1.712542176246643
            ]
        },
        {
            "name" : "left",
            "rotation" : [
                0.7071068286895752,
                -8.120284746837569e-07,
                -8.120284746837569e-07,
                0.7071068286895752
            ],
            "translation" : [
                3.3336498737335205,
                -0.1226271390914917,
                -1.712542176246643
            ]
        },
        {
            "mesh" : 0,
            "name" : "mouth",
            "skin" : 0
        },
        {
            "children" : [
                4,
                0,
                1,
                2,
                3
            ],
            "name" : "Armature",
            "scale" : [
                0.21917080879211426,
                0.21917080879211426,
                0.21917080879211426
            ]
        },
        {
            "name" : "Point",
            "translation" : [
                0,
                0,
                2
            ]
        }
    ],
    "animations" : [
        {
            "channels" : [
                {
                    "sampler" : 0,
                    "target" : {
                        "node" : 0,
                        "path" : "translation"
                    }
                },
                {
                    "sampler" : 1,
                    "target" : {
                        "node" : 0,
                        "path" : "rotation"
                    }
                },
                {
                    "sampler" : 2,
                    "target" : {
                        "node" : 0,
                        "path" : "scale"
                    }
                },
                {
                    "sampler" : 3,
                    "target" : {
                        "node" : 1,
                        "path" : "translation"
                    }
                },
                {
                    "sampler" : 4,
                    "target" : {
                        "node" : 1,
                        "path" : "rotation"
                    }
                },
                {
                    "sampler" : 5,
                    "target" : {
                        "node" : 1,
                        "path" : "scale"
                    }
                },
                {
                    "sampler" : 6,
                    "target" : {
                        "node" : 2,
                        "path" : "translation"
                    }
                },
                {
                    "sampler" : 7,
                    "target" : {
                        "node" : 2,
                        "path" : "rotation"
                    }
                },
                {
                    "sampler" : 8,
                    "target" : {
                        "node" : 2,
                        "path" : "scale"
                    }
                },
                {
                    "sampler" : 9,
                    "target" : {
                        "node" : 3,
                        "path" : "translation"
                    }
                },
                {
                    "sampler" : 10,
                    "target" : {
                        "node" : 3,
                        "path" : "rotation"
                    }
                },
                {
                    "sampler" : 11,
                    "target" : {
                        "node" : 3,
                        "path" : "scale"
                    }
                }
            ],
            "name" : "ArmatureAction",
            "samplers" : [
                {
                    "input" : 7,
                    "interpolation" : "LINEAR",
                    "output" : 8
                },
                {
                    "input" : 7,
                    "interpolation" : "LINEAR",
                    "output" : 9
                },
                {
                    "input" : 7,
                    "interpolation" : "LINEAR",
                    "output" : 10
                },
                {
                    "input" : 7,
                    "interpolation" : "LINEAR",
                    "output" : 11
                },
                {
                    "input" : 7,
                    "interpolation" : "LINEAR",
                    "output" : 12
                },
                {
                    "input" : 7,
                    "interpolation" : "LINEAR",
                    "output" : 13
                },
                {
                    "input" : 7,
                    "interpolation" : "LINEAR",
                    "output" : 14
                },
                {
                    "input" : 7,
                    "interpolation" : "LINEAR",
                    "output" : 15
                },
                {
                    "input" : 7,
                    "interpolation" : "LINEAR",
                    "output" : 16
                },
                {
                    "input" : 7,
                    "interpolation" : "LINEAR",
                    "output" : 17
                },
                {
                    "input" : 7,
                    "interpolation" : "LINEAR",
                    "output" : 18
                },
                {
                    "input" : 7,
                    "interpolation" : "LINEAR",
                    "output" : 19
                }
            ]
        }
    ],
    "materials" : [
        {
            "doubleSided" : true,
            "emissiveFactor" : [
                0,
                0,
                0
            ],
            "name" : "texture",
            "pbrMetallicRoughness" : {
                "baseColorTexture" : {
                    "index" : 0,
                    "texCoord" : 0
                },
                "metallicFactor" : 0,
                "roughnessFactor" : 0.30000001192092896
            }
        }
    ],
    "meshes" : [
        {
            "name" : "Cylinder.001",
            "primitives" : [
                {
                    "attributes" : {
                        "POSITION" : 0,
                        "NORMAL" : 1,
                        "TEXCOORD_0" : 2,
                        "JOINTS_0" : 3,
                        "WEIGHTS_0" : 4
                    },
                    "indices" : 5,
                    "material" : 0
                }
            ]
        }
    ],
    "textures" : [
        {
            "source" : 0
        }
    ],
    "images" : [
        {
            "bufferView" : 6,
            "mimeType" : "image/jpeg",
            "name" : "lips"
        }
    ],
    "skins" : [
        {
            "inverseBindMatrices" : 6,
            "joints" : [
                0,
                1,
                2,
                3
            ],
            "name" : "Armature"
        }
    ],
    "accessors" : [
        {
            "bufferView" : 0,
            "componentType" : 5126,
            "count" : 94,
            "max" : [
                0.9281569719314575,
                0.37960490584373474,
                0.4328247010707855
            ],
            "min" : [
                -0.9281569719314575,
                -0.5883368849754333,
                -0.33612972497940063
            ],
            "type" : "VEC3"
        },
        {
            "bufferView" : 1,
            "componentType" : 5126,
            "count" : 94,
            "type" : "VEC3"
        },
        {
            "bufferView" : 2,
            "componentType" : 5126,
            "count" : 94,
            "type" : "VEC2"
        },
        {
            "bufferView" : 3,
            "componentType" : 5123,
            "count" : 94,
            "type" : "VEC4"
        },
        {
            "bufferView" : 4,
            "componentType" : 5126,
            "count" : 94,
            "type" : "VEC4"
        },
        {
            "bufferView" : 5,
            "componentType" : 5123,
            "count" : 318,
            "type" : "SCALAR"
        },
        {
            "bufferView" : 7,
            "componentType" : 5126,
            "count" : 4,
            "type" : "MAT4"
        },
        {
            "bufferView" : 8,
            "componentType" : 5126,
            "count" : 61,
            "max" : [
                2.5
            ],
            "min" : [
                0
            ],
            "type" : "SCALAR"
        },
        {
            "bufferView" : 9,
            "componentType" : 5126,
            "count" : 61,
            "type" : "VEC3"
        },
        {
            "bufferView" : 10,
            "componentType" : 5126,
            "count" : 61,
            "type" : "VEC4"
        },
        {
            "bufferView" : 11,
            "componentType" : 5126,
            "count" : 61,
            "type" : "VEC3"
        },
        {
            "bufferView" : 12,
            "componentType" : 5126,
            "count" : 61,
            "type" : "VEC3"
        },
        {
            "bufferView" : 13,
            "componentType" : 5126,
            "count" : 61,
            "type" : "VEC4"
        },
        {
            "bufferView" : 14,
            "componentType" : 5126,
            "count" : 61,
            "type" : "VEC3"
        },
        {
            "bufferView" : 15,
            "componentType" : 5126,
            "count" : 61,
            "type" : "VEC3"
        },
        {
            "bufferView" : 16,
            "componentType" : 5126,
            "count" : 61,
            "type" : "VEC4"
        },
        {
            "bufferView" : 17,
            "componentType" : 5126,
            "count" : 61,
            "type" : "VEC3"
        },
        {
            "bufferView" : 18,
            "componentType" : 5126,
            "count" : 61,
            "type" : "VEC3"
        },
        {
            "bufferView" : 19,
            "componentType" : 5126,
            "count" : 61,
            "type" : "VEC4"
        },
        {
            "bufferView" : 20,
            "componentType" : 5126,
            "count" : 61,
            "type" : "VEC3"
        }
    ],
    "bufferViews" : [
        {
            "buffer" : 0,
            "byteLength" : 1128,
            "byteOffset" : 0
        },
        {
            "buffer" : 0,
            "byteLength" : 1128,
            "byteOffset" : 1128
        },
        {
            "buffer" : 0,
            "byteLength" : 752,
            "byteOffset" : 2256
        },
        {
            "buffer" : 0,
            "byteLength" : 752,
            "byteOffset" : 3008
        },
        {
            "buffer" : 0,
            "byteLength" : 1504,
            "byteOffset" : 3760
        },
        {
            "buffer" : 0,
            "byteLength" : 636,
            "byteOffset" : 5264
        },
        {
            "buffer" : 0,
            "byteLength" : 210351,
            "byteOffset" : 5900
        },
        {
            "buffer" : 0,
            "byteLength" : 256,
            "byteOffset" : 216252
        },
        {
            "buffer" : 0,
            "byteLength" : 244,
            "byteOffset" : 216508
        },
        {
            "buffer" : 0,
            "byteLength" : 732,
            "byteOffset" : 216752
        },
        {
            "buffer" : 0,
            "byteLength" : 976,
            "byteOffset" : 217484
        },
        {
            "buffer" : 0,
            "byteLength" : 732,
            "byteOffset" : 218460
        },
        {
            "buffer" : 0,
            "byteLength" : 732,
            "byteOffset" : 219192
        },
        {
            "buffer" : 0,
            "byteLength" : 976,
            "byteOffset" : 219924
        },
        {
            "buffer" : 0,
            "byteLength" : 732,
            "byteOffset" : 220900
        },
        {
            "buffer" : 0,
            "byteLength" : 732,
            "byteOffset" : 221632
        },
        {
            "buffer" : 0,
            "byteLength" : 976,
            "byteOffset" : 222364
        },
        {
            "buffer" : 0,
            "byteLength" : 732,
            "byteOffset" : 223340
        },
        {
            "buffer" : 0,
            "byteLength" : 732,
            "byteOffset" : 224072
        },
        {
            "buffer" : 0,
            "byteLength" : 976,
            "byteOffset" : 224804
        },
        {
            "buffer" : 0,
            "byteLength" : 732,
            "byteOffset" : 225780
        }
    ],
    "buffers" : [
        {
            "byteLength" : 226512,
            "uri" : "data:application/octet-stream;base64,"
        }
    ]
}
