{
    "asset" : {
        "generator" : "Khronos glTF Blender I/O v1.3.48",
        "version" : "2.0"
    },
    "scene" : 0,
    "scenes" : [
        {
            "name" : "Scene",
            "nodes" : [
                6
            ]
        }
    ],
    "nodes" : [
        {
            "name" : "labio_s",
            "rotation" : [
                0.7071068286895752,
                -4.5237717927193444e-07,
                -4.5237717927193444e-07,
                0.7071068286895752
            ],
            "translation" : [
                0,
                0.5005029439926147,
                0.6787667274475098
            ]
        },
        {
            "name" : "labio_in",
            "rotation" : [
                0.7071068286895752,
                -7.052582304822863e-07,
                -7.052582304822863e-07,
                0.7071068286895752
            ],
            "translation" : [
                0,
                0.4103422164916992,
                0.6366889476776123
            ]
        },
        {
            "name" : "labio_d",
            "rotation" : [
                0.7071068286895752,
                -9.581393669577665e-07,
                -9.581393669577665e-07,
                0.7071068286895752
            ],
            "scale" : [
                1.075304627418518,
                1,
                1
            ],
            "translation" : [
                -0.173921138048172,
                0.43839406967163086,
                0.5875983238220215
            ]
        },
        {
            "name" : "labio_iz",
            "rotation" : [
                0.7071068286895752,
                -1.0424330412206473e-06,
                -1.0424329275338096e-06,
                0.7071068286895752
            ],
            "scale" : [
                1.075304627418518,
                1,
                1
            ],
            "translation" : [
                0.19916778802871704,
                0.43839406967163086,
                0.5875983238220215
            ]
        },
        {
            "children" : [
                0,
                1,
                2,
                3
            ],
            "name" : "head",
            "translation" : [
                0,
                -0.6956131458282471,
                0.2443065345287323
            ]
        },
        {
            "mesh" : 0,
            "name" : "head",
            "skin" : 0
        },
        {
            "children" : [
                5,
                4
            ],
            "name" : "Armature"
        }
    ],
    "animations" : [
        {
            "channels" : [
                {
                    "sampler" : 0,
                    "target" : {
                        "node" : 4,
                        "path" : "translation"
                    }
                },
                {
                    "sampler" : 1,
                    "target" : {
                        "node" : 4,
                        "path" : "rotation"
                    }
                },
                {
                    "sampler" : 2,
                    "target" : {
                        "node" : 4,
                        "path" : "scale"
                    }
                },
                {
                    "sampler" : 3,
                    "target" : {
                        "node" : 0,
                        "path" : "translation"
                    }
                },
                {
                    "sampler" : 4,
                    "target" : {
                        "node" : 0,
                        "path" : "rotation"
                    }
                },
                {
                    "sampler" : 5,
                    "target" : {
                        "node" : 0,
                        "path" : "scale"
                    }
                },
                {
                    "sampler" : 6,
                    "target" : {
                        "node" : 1,
                        "path" : "translation"
                    }
                },
                {
                    "sampler" : 7,
                    "target" : {
                        "node" : 1,
                        "path" : "rotation"
                    }
                },
                {
                    "sampler" : 8,
                    "target" : {
                        "node" : 1,
                        "path" : "scale"
                    }
                },
                {
                    "sampler" : 9,
                    "target" : {
                        "node" : 2,
                        "path" : "translation"
                    }
                },
                {
                    "sampler" : 10,
                    "target" : {
                        "node" : 2,
                        "path" : "rotation"
                    }
                },
                {
                    "sampler" : 11,
                    "target" : {
                        "node" : 2,
                        "path" : "scale"
                    }
                },
                {
                    "sampler" : 12,
                    "target" : {
                        "node" : 3,
                        "path" : "translation"
                    }
                },
                {
                    "sampler" : 13,
                    "target" : {
                        "node" : 3,
                        "path" : "rotation"
                    }
                },
                {
                    "sampler" : 14,
                    "target" : {
                        "node" : 3,
                        "path" : "scale"
                    }
                }
            ],
            "name" : "ArmatureAction.001",
            "samplers" : [
                {
                    "input" : 13,
                    "interpolation" : "LINEAR",
                    "output" : 14
                },
                {
                    "input" : 13,
                    "interpolation" : "LINEAR",
                    "output" : 15
                },
                {
                    "input" : 13,
                    "interpolation" : "LINEAR",
                    "output" : 16
                },
                {
                    "input" : 13,
                    "interpolation" : "LINEAR",
                    "output" : 17
                },
                {
                    "input" : 13,
                    "interpolation" : "LINEAR",
                    "output" : 18
                },
                {
                    "input" : 13,
                    "interpolation" : "LINEAR",
                    "output" : 19
                },
                {
                    "input" : 13,
                    "interpolation" : "LINEAR",
                    "output" : 20
                },
                {
                    "input" : 13,
                    "interpolation" : "LINEAR",
                    "output" : 21
                },
                {
                    "input" : 13,
                    "interpolation" : "LINEAR",
                    "output" : 22
                },
                {
                    "input" : 13,
                    "interpolation" : "LINEAR",
                    "output" : 23
                },
                {
                    "input" : 13,
                    "interpolation" : "LINEAR",
                    "output" : 24
                },
                {
                    "input" : 13,
                    "interpolation" : "LINEAR",
                    "output" : 25
                },
                {
                    "input" : 13,
                    "interpolation" : "LINEAR",
                    "output" : 26
                },
                {
                    "input" : 13,
                    "interpolation" : "LINEAR",
                    "output" : 27
                },
                {
                    "input" : 13,
                    "interpolation" : "LINEAR",
                    "output" : 28
                }
            ]
        }
    ],
    "materials" : [
        {
            "doubleSided" : true,
            "emissiveFactor" : [
                0,
                0,
                0
            ],
            "name" : "no_texture",
            "pbrMetallicRoughness" : {
                "baseColorTexture" : {
                    "index" : 0,
                    "texCoord" : 0
                },
                "metallicFactor" : 0.20000000298023224,
                "roughnessFactor" : 0.30000001192092896
            }
        },
        {
            "doubleSided" : true,
            "emissiveFactor" : [
                0,
                0,
                0
            ],
            "name" : "eyes",
            "pbrMetallicRoughness" : {
                "baseColorFactor" : [
                    0,
                    0,
                    0,
                    1
                ],
                "metallicFactor" : 0.5,
                "roughnessFactor" : 0.5
            }
        }
    ],
    "meshes" : [
        {
            "name" : "Head_mesh",
            "primitives" : [
                {
                    "attributes" : {
                        "POSITION" : 0,
                        "NORMAL" : 1,
                        "TEXCOORD_0" : 2,
                        "JOINTS_0" : 3,
                        "WEIGHTS_0" : 4
                    },
                    "indices" : 5,
                    "material" : 0
                },
                {
                    "attributes" : {
                        "POSITION" : 6,
                        "NORMAL" : 7,
                        "TEXCOORD_0" : 8,
                        "JOINTS_0" : 9,
                        "WEIGHTS_0" : 10
                    },
                    "indices" : 11,
                    "material" : 1
                }
            ]
        }
    ],
    "textures" : [
        {
            "source" : 0
        }
    ],
    "images" : [
        {
            "bufferView" : 6,
            "mimeType" : "image/jpeg",
            "name" : "missing_texture"
        }
    ],
    "skins" : [
        {
            "inverseBindMatrices" : 12,
            "joints" : [
                4,
                0,
                1,
                2,
                3
            ],
            "name" : "Armature"
        }
    ],
    "accessors" : [
        {
            "bufferView" : 0,
            "componentType" : 5126,
            "count" : 17226,
            "max" : [
                0.825893223285675,
                1.2734112739562988,
                1.1973601579666138
            ],
            "min" : [
                -0.7702577114105225,
                -0.9427976608276367,
                -0.6000790596008301
            ],
            "type" : "VEC3"
        },
        {
            "bufferView" : 1,
            "componentType" : 5126,
            "count" : 17226,
            "type" : "VEC3"
        },
        {
            "bufferView" : 2,
            "componentType" : 5126,
            "count" : 17226,
            "type" : "VEC2"
        },
        {
            "bufferView" : 3,
            "componentType" : 5123,
            "count" : 17226,
            "type" : "VEC4"
        },
        {
            "bufferView" : 4,
            "componentType" : 5126,
            "count" : 17226,
            "type" : "VEC4"
        },
        {
            "bufferView" : 5,
            "componentType" : 5123,
            "count" : 99948,
            "type" : "SCALAR"
        },
        {
            "bufferView" : 7,
            "componentType" : 5126,
            "count" : 550,
            "max" : [
                0.40391066670417786,
                0.35090553760528564,
                0.9762081503868103
            ],
            "min" : [
                -0.35553446412086487,
                0.23766453564167023,
                0.8706420063972473
            ],
            "type" : "VEC3"
        },
        {
            "bufferView" : 8,
            "componentType" : 5126,
            "count" : 550,
            "type" : "VEC3"
        },
        {
            "bufferView" : 9,
            "componentType" : 5126,
            "count" : 550,
            "type" : "VEC2"
        },
        {
            "bufferView" : 10,
            "componentType" : 5123,
            "count" : 550,
            "type" : "VEC4"
        },
        {
            "bufferView" : 11,
            "componentType" : 5126,
            "count" : 550,
            "type" : "VEC4"
        },
        {
            "bufferView" : 12,
            "componentType" : 5123,
            "count" : 2940,
            "type" : "SCALAR"
        },
        {
            "bufferView" : 13,
            "componentType" : 5126,
            "count" : 5,
            "type" : "MAT4"
        },
        {
            "bufferView" : 14,
            "componentType" : 5126,
            "count" : 301,
            "max" : [
                10
            ],
            "min" : [
                0
            ],
            "type" : "SCALAR"
        },
        {
            "bufferView" : 15,
            "componentType" : 5126,
            "count" : 301,
            "type" : "VEC3"
        },
        {
            "bufferView" : 16,
            "componentType" : 5126,
            "count" : 301,
            "type" : "VEC4"
        },
        {
            "bufferView" : 17,
            "componentType" : 5126,
            "count" : 301,
            "type" : "VEC3"
        },
        {
            "bufferView" : 18,
            "componentType" : 5126,
            "count" : 301,
            "type" : "VEC3"
        },
        {
            "bufferView" : 19,
            "componentType" : 5126,
            "count" : 301,
            "type" : "VEC4"
        },
        {
            "bufferView" : 20,
            "componentType" : 5126,
            "count" : 301,
            "type" : "VEC3"
        },
        {
            "bufferView" : 21,
            "componentType" : 5126,
            "count" : 301,
            "type" : "VEC3"
        },
        {
            "bufferView" : 22,
            "componentType" : 5126,
            "count" : 301,
            "type" : "VEC4"
        },
        {
            "bufferView" : 23,
            "componentType" : 5126,
            "count" : 301,
            "type" : "VEC3"
        },
        {
            "bufferView" : 24,
            "componentType" : 5126,
            "count" : 301,
            "type" : "VEC3"
        },
        {
            "bufferView" : 25,
            "componentType" : 5126,
            "count" : 301,
            "type" : "VEC4"
        },
        {
            "bufferView" : 26,
            "componentType" : 5126,
            "count" : 301,
            "type" : "VEC3"
        },
        {
            "bufferView" : 27,
            "componentType" : 5126,
            "count" : 301,
            "type" : "VEC3"
        },
        {
            "bufferView" : 28,
            "componentType" : 5126,
            "count" : 301,
            "type" : "VEC4"
        },
        {
            "bufferView" : 29,
            "componentType" : 5126,
            "count" : 301,
            "type" : "VEC3"
        }
    ],
    "bufferViews" : [
        {
            "buffer" : 0,
            "byteLength" : 206712,
            "byteOffset" : 0
        },
        {
            "buffer" : 0,
            "byteLength" : 206712,
            "byteOffset" : 206712
        },
        {
            "buffer" : 0,
            "byteLength" : 137808,
            "byteOffset" : 413424
        },
        {
            "buffer" : 0,
            "byteLength" : 137808,
            "byteOffset" : 551232
        },
        {
            "buffer" : 0,
            "byteLength" : 275616,
            "byteOffset" : 689040
        },
        {
            "buffer" : 0,
            "byteLength" : 199896,
            "byteOffset" : 964656
        },
        {
            "buffer" : 0,
            "byteLength" : 397428,
            "byteOffset" : 1164552
        },
        {
            "buffer" : 0,
            "byteLength" : 6600,
            "byteOffset" : 1561980
        },
        {
            "buffer" : 0,
            "byteLength" : 6600,
            "byteOffset" : 1568580
        },
        {
            "buffer" : 0,
            "byteLength" : 4400,
            "byteOffset" : 1575180
        },
        {
            "buffer" : 0,
            "byteLength" : 4400,
            "byteOffset" : 1579580
        },
        {
            "buffer" : 0,
            "byteLength" : 8800,
            "byteOffset" : 1583980
        },
        {
            "buffer" : 0,
            "byteLength" : 5880,
            "byteOffset" : 1592780
        },
        {
            "buffer" : 0,
            "byteLength" : 320,
            "byteOffset" : 1598660
        },
        {
            "buffer" : 0,
            "byteLength" : 1204,
            "byteOffset" : 1598980
        },
        {
            "buffer" : 0,
            "byteLength" : 3612,
            "byteOffset" : 1600184
        },
        {
            "buffer" : 0,
            "byteLength" : 4816,
            "byteOffset" : 1603796
        },
        {
            "buffer" : 0,
            "byteLength" : 3612,
            "byteOffset" : 1608612
        },
        {
            "buffer" : 0,
            "byteLength" : 3612,
            "byteOffset" : 1612224
        },
        {
            "buffer" : 0,
            "byteLength" : 4816,
            "byteOffset" : 1615836
        },
        {
            "buffer" : 0,
            "byteLength" : 3612,
            "byteOffset" : 1620652
        },
        {
            "buffer" : 0,
            "byteLength" : 3612,
            "byteOffset" : 1624264
        },
        {
            "buffer" : 0,
            "byteLength" : 4816,
            "byteOffset" : 1627876
        },
        {
            "buffer" : 0,
            "byteLength" : 3612,
            "byteOffset" : 1632692
        },
        {
            "buffer" : 0,
            "byteLength" : 3612,
            "byteOffset" : 1636304
        },
        {
            "buffer" : 0,
            "byteLength" : 4816,
            "byteOffset" : 1639916
        },
        {
            "buffer" : 0,
            "byteLength" : 3612,
            "byteOffset" : 1644732
        },
        {
            "buffer" : 0,
            "byteLength" : 3612,
            "byteOffset" : 1648344
        },
        {
            "buffer" : 0,
            "byteLength" : 4816,
            "byteOffset" : 1651956
        },
        {
            "buffer" : 0,
            "byteLength" : 3612,
            "byteOffset" : 1656772
        }
    ],
    "buffers" : [
        {
            "byteLength" : 1660384,
            "uri" : "data:application/octet-stream;base64,"
        }
    ]
}
